<svg data-v-423bf9ae="" xmlns="http://www.w3.org/2000/svg" viewBox="0 0 281 90" class="iconLeft"><!----><!----><!----><g data-v-423bf9ae="" id="5122963e-b469-4649-ae94-ca8e0e77e67b" fill="#ffffff" transform="matrix(6.036217212677002,0,0,6.036217212677002,112.49520111083984,-0.21126842498779297)"><path d="M1.11 12.29L1.11 2.69L2.44 2.69L2.44 11.13L7.36 11.13L7.36 12.29L1.11 12.29ZM8.89 12.29L8.89 2.69L10.08 2.69L15.15 9.38L15.48 9.83L15.54 9.81L15.54 9.16L15.54 2.69L16.79 2.69L16.79 12.29L15.65 12.29L10.56 5.52L10.19 5.03L10.14 5.04L10.14 5.70L10.14 12.29L8.89 12.29ZM23.07 8.46L23.07 7.29L27.79 7.29L27.79 12.29L26.75 12.29L26.66 11.23L26.66 11.23Q25.56 12.46 23.31 12.46L23.31 12.46L23.31 12.46Q20.96 12.46 19.75 11.22L19.75 11.22L19.75 11.22Q18.55 9.98 18.55 7.49L18.55 7.49L18.55 7.49Q18.55 2.52 23.39 2.52L23.39 2.52L23.39 2.52Q25.38 2.52 26.59 3.40L26.59 3.40L26.59 3.40Q27.79 4.28 27.79 5.96L27.79 5.96L26.43 5.96L26.43 5.96Q26.43 4.80 25.62 4.23L25.62 4.23L25.62 4.23Q24.81 3.65 23.39 3.65L23.39 3.65L23.39 3.65Q21.64 3.65 20.79 4.55L20.79 4.55L20.79 4.55Q19.94 5.45 19.94 7.49L19.94 7.49L19.94 7.52L19.94 7.52Q19.95 9.55 20.78 10.44L20.78 10.44L20.78 10.44Q21.62 11.33 23.31 11.33L23.31 11.33L23.31 11.33Q24.93 11.33 25.70 10.65L25.70 10.65L25.70 10.65Q26.46 9.98 26.46 8.60L26.46 8.60L26.46 8.46L23.07 8.46Z"></path></g><!----><g data-v-423bf9ae="" id="2680eb4d-6b8d-4bf4-9dd9-ddc3e98eb69e" transform="matrix(1.5325671434402466,0,0,1.5325671434402466,-27.330368041992188,-32.649906158447266)" stroke="none" fill="#EBC246"><path d="M82.7 50.6L63.6 31.3c-.3-.3-.9-.3-1.2 0-.3.3-.3.9 0 1.2L81 51.2 62.3 70c-.3.3-.3.9 0 1.2.2.2.4.3.6.3.2 0 .5-.1.6-.3l19.2-19.3c.4-.4.4-.9 0-1.3zM38.9 31.3c-.3-.3-.9-.3-1.2 0L18.5 50.6c-.3.3-.3.9 0 1.2l19.2 19.3c.2.2.4.3.6.3.2 0 .4-.1.6-.3.3-.3.3-.9 0-1.2L20.4 51.2 39 32.5c.3-.3.3-.9-.1-1.2zM59.8 21.9c-.5-.1-1 .1-1.1.6l-17.9 57c-.1.5.1 1 .6 1.1h.3c.4 0 .7-.2.8-.6l17.9-57c.1-.5-.1-1-.6-1.1z"></path></g><!----></svg>